<?xml version="1.0" standalone="no"?>
<!DOCTYPE svg PUBLIC "-//W3C//DTD SVG 20010904//EN"
 "http://www.w3.org/TR/2001/REC-SVG-20010904/DTD/svg10.dtd">
<svg version="1.0" xmlns="http://www.w3.org/2000/svg"
 width="512.000000pt" height="512.000000pt" viewBox="0 0 512.000000 512.000000"
 preserveAspectRatio="xMidYMid meet">
<metadata>
Created by potrace 1.14, written by Peter Selinger 2001-2017
</metadata>
<g transform="translate(0.000000,512.000000) scale(0.100000,-0.100000)"
fill="#000000" stroke="none">
<path d="M2485 4781 c-58 -26 -126 -97 -249 -259 -59 -78 -128 -159 -153 -181
-88 -74 -170 -78 -383 -15 -220 64 -274 76 -335 77 -153 0 -209 -90 -214 -346
-6 -279 -13 -332 -51 -408 -35 -68 -116 -113 -340 -189 -156 -53 -234 -91
-282 -137 -91 -88 -72 -185 77 -398 41 -59 75 -111 75 -116 0 -5 4 -9 8 -9 5
0 28 -37 53 -82 41 -78 44 -88 43 -158 0 -90 -16 -127 -104 -255 -166 -240
-196 -294 -205 -363 -7 -61 11 -107 61 -151 57 -50 110 -75 315 -146 165 -58
253 -104 287 -152 44 -63 59 -160 63 -416 3 -206 33 -298 110 -338 64 -32 110
-31 270 6 8 1 67 19 130 38 163 50 194 56 273 54 111 -4 151 -37 331 -277 139
-185 201 -234 295 -234 98 0 153 46 323 271 113 149 153 191 216 222 58 30
166 22 321 -24 242 -71 266 -77 336 -77 60 -1 76 3 110 26 41 27 78 85 89 141
7 39 13 136 19 320 8 218 32 284 127 346 53 35 84 47 310 128 131 46 186 74
235 121 31 29 54 81 54 123 0 58 -54 157 -210 382 -102 146 -130 247 -94 341
20 54 69 135 187 307 194 285 152 381 -223 508 -234 79 -304 119 -344 197 -35
70 -42 124 -47 406 -3 161 -25 243 -79 294 -66 63 -161 61 -385 -8 -231 -71
-326 -84 -398 -52 -65 29 -108 72 -220 221 -194 259 -283 317 -402 262z"/>
</g>
</svg>
